<svg width="184" height="184" viewBox="0 0 184 184" fill="none" xmlns="http://www.w3.org/2000/svg">
<circle cx="92" cy="92" r="88" fill="url(#paint0_linear_101_7)" stroke="#FAFAFA" stroke-width="8"/>
<path d="M138.5 115.25C138.5 117.213 137.415 118.918 135.762 119.797L94.945 142.737C94.1183 143.357 93.085 143.667 92 143.667C90.915 143.667 89.8817 143.357 89.055 142.737L48.2383 119.797C46.585 118.918 45.5 117.213 45.5 115.25V68.75C45.5 66.7866 46.585 65.0816 48.2383 64.2033L89.055 41.2633C89.8817 40.6433 90.915 40.3333 92 40.3333C93.085 40.3333 94.1183 40.6433 94.945 41.2633L135.762 64.2033C137.415 65.0816 138.5 66.7866 138.5 68.75V115.25ZM92 51.4416L82.235 56.97L112.667 74.485L122.793 68.75L92 51.4416ZM61.2067 68.75L92 86.0583L102.127 80.375L71.7467 62.8083L61.2067 68.75ZM55.8333 112.202L86.8333 129.665V94.9966L55.8333 77.585V112.202ZM128.167 112.202V77.585L97.1667 94.9966V129.665L128.167 112.202Z" fill="#FAFAFA"/>
<defs>
<linearGradient id="paint0_linear_101_7" x1="92" y1="0" x2="92" y2="184" gradientUnits="userSpaceOnUse">
<stop stop-color="#3E9A43"/>
<stop offset="1" stop-color="#409F46"/>
</linearGradient>
</defs>
</svg>
