<svg width="190" height="190" viewBox="0 0 190 190" fill="none" xmlns="http://www.w3.org/2000/svg">
<circle cx="95" cy="95" r="88" fill="#BDBDBD" stroke="#FAFAFA" stroke-width="8"/>
<path d="M58.8783 138.859C49.1739 138.859 40.5478 130.719 40.5478 120.407C40.5478 110.095 48.6348 101.955 58.8783 101.955C69.1217 101.955 77.2087 110.095 77.2087 120.407C77.2087 130.719 68.5826 138.859 58.8783 138.859ZM58.8783 94.8995C44.3217 94.8995 33 106.296 33 120.95C33 135.603 44.3217 147 58.8783 147C73.4348 147 84.7565 135.603 84.7565 120.95C84.7565 106.296 73.4348 94.8995 58.8783 94.8995ZM109.557 84.5879H131.122V74.8191H114.409L104.704 57.4523C103.087 54.7387 99.8522 53.1106 97.1565 53.1106C94.4609 53.1106 92.3043 54.196 90.687 55.8241L71.8174 75.3618C70.2 76.9899 69.1217 79.1608 69.1217 81.8744C69.1217 85.1306 70.7391 88.3869 73.4348 89.4724L90.687 99.7839V125.834H100.391V92.1859L89.0696 84.0452L100.93 71.5628L109.557 84.5879ZM131.122 138.859C121.417 138.859 112.791 130.719 112.791 120.407C112.791 110.095 120.878 101.955 131.122 101.955C141.365 101.955 149.452 110.095 149.452 120.407C149.452 130.719 140.826 138.859 131.122 138.859ZM131.122 94.8995C116.565 94.8995 105.243 106.296 105.243 120.95C105.243 135.603 116.565 147 131.122 147C145.678 147 157 135.603 157 120.95C157 106.296 145.678 94.8995 131.122 94.8995ZM115.487 57.4523C120.878 57.4523 124.652 53.1106 124.652 48.2261C124.652 43.3417 120.339 39 115.487 39C110.635 39 106.322 43.3417 106.322 48.2261C106.322 53.1106 110.635 57.4523 115.487 57.4523Z" fill="#FAFAFA"/>
</svg>
